<svg width="1287" height="1036" viewBox="0 0 1287 1036" fill="none" xmlns="http://www.w3.org/2000/svg">
<path d="M1120.02 595.724C1123.57 592.042 1127.19 588.41 1130.87 584.835C1166.61 550.15 1208.13 521.34 1240.88 483.914C1293.36 423.932 1296.67 359.032 1268.24 294.888C1238.06 226.797 1174.4 181.253 1107.69 147.687C1079.99 133.746 1050.77 121.233 1018.81 118.496C972.01 114.489 924.092 131.639 876.571 140.25C748.401 163.472 662.37 57.2895 554.539 20.0294C492.209 -1.50782 422.352 -2.44493 353.817 5.51647C310.145 10.5886 265.751 19.4404 225.356 40.0267C186.675 59.74 153.239 89.4482 123.757 121.747C71.0676 179.47 28.9399 247.756 9.76285 320.9C-18.5365 428.838 26.6335 504.426 49.5085 600.241C73.8731 702.296 125.826 794.609 194.647 870.251C270.913 954.073 371.463 1021.42 489.46 1032.91C538.904 1037.73 616.515 1038.42 662.316 1012.83C766.657 954.548 873.415 894.375 954.309 805.566C1014.5 739.48 1058.04 659.9 1120.02 595.724Z" fill="#0066FF"/>
</svg>
