<svg id="wave" style="transform:rotate(0deg); transition: 0.3s" viewBox="0 0 1440 320" version="1.1" xmlns="http://www.w3.org/2000/svg"><defs><linearGradient id="sw-gradient-0" x1="0" x2="0" y1="1" y2="0"><stop stop-color="rgba(255, 255, 255, 0.3)" offset="0%"></stop><stop stop-color="rgba(255, 255, 255, 0.3)" offset="100%"></stop></linearGradient></defs><path style="transform:translate(0, 0px); opacity:1" fill="url(#sw-gradient-0)" d="M0,128L60,122.7C120,117,240,107,360,112C480,117,600,139,720,149.3C840,160,960,160,1080,138.7C1200,117,1320,75,1440,64C1560,53,1680,75,1800,85.3C1920,96,2040,96,2160,85.3C2280,75,2400,53,2520,58.7C2640,64,2760,96,2880,122.7C3000,149,3120,171,3240,192C3360,213,3480,235,3600,229.3C3720,224,3840,192,3960,160C4080,128,4200,96,4320,112C4440,128,4560,192,4680,202.7C4800,213,4920,171,5040,165.3C5160,160,5280,192,5400,213.3C5520,235,5640,245,5760,245.3C5880,245,6000,235,6120,197.3C6240,160,6360,96,6480,58.7C6600,21,6720,11,6840,26.7C6960,43,7080,85,7200,122.7C7320,160,7440,192,7560,181.3C7680,171,7800,117,7920,80C8040,43,8160,21,8280,16C8400,11,8520,21,8580,26.7L8640,32L8640,320L8580,320C8520,320,8400,320,8280,320C8160,320,8040,320,7920,320C7800,320,7680,320,7560,320C7440,320,7320,320,7200,320C7080,320,6960,320,6840,320C6720,320,6600,320,6480,320C6360,320,6240,320,6120,320C6000,320,5880,320,5760,320C5640,320,5520,320,5400,320C5280,320,5160,320,5040,320C4920,320,4800,320,4680,320C4560,320,4440,320,4320,320C4200,320,4080,320,3960,320C3840,320,3720,320,3600,320C3480,320,3360,320,3240,320C3120,320,3000,320,2880,320C2760,320,2640,320,2520,320C2400,320,2280,320,2160,320C2040,320,1920,320,1800,320C1680,320,1560,320,1440,320C1320,320,1200,320,1080,320C960,320,840,320,720,320C600,320,480,320,360,320C240,320,120,320,60,320L0,320Z"></path><defs><linearGradient id="sw-gradient-1" x1="0" x2="0" y1="1" y2="0"><stop stop-color="rgba(255, 255, 255, 0.5)" offset="0%"></stop><stop stop-color="rgba(255, 255, 255, 0.5)" offset="100%"></stop></linearGradient></defs><path style="transform:translate(0, 50px); opacity:0.9" fill="url(#sw-gradient-1)" d="M0,64L60,64C120,64,240,64,360,80C480,96,600,128,720,160C840,192,960,224,1080,202.7C1200,181,1320,107,1440,112C1560,117,1680,203,1800,202.7C1920,203,2040,117,2160,69.3C2280,21,2400,11,2520,26.7C2640,43,2760,85,2880,96C3000,107,3120,85,3240,85.3C3360,85,3480,107,3600,112C3720,117,3840,107,3960,90.7C4080,75,4200,53,4320,85.3C4440,117,4560,203,4680,202.7C4800,203,4920,117,5040,90.7C5160,64,5280,96,5400,117.3C5520,139,5640,149,5760,154.7C5880,160,6000,160,6120,138.7C6240,117,6360,75,6480,90.7C6600,107,6720,181,6840,197.3C6960,213,7080,171,7200,154.7C7320,139,7440,149,7560,170.7C7680,192,7800,224,7920,202.7C8040,181,8160,107,8280,90.7C8400,75,8520,117,8580,138.7L8640,160L8640,320L8580,320C8520,320,8400,320,8280,320C8160,320,8040,320,7920,320C7800,320,7680,320,7560,320C7440,320,7320,320,7200,320C7080,320,6960,320,6840,320C6720,320,6600,320,6480,320C6360,320,6240,320,6120,320C6000,320,5880,320,5760,320C5640,320,5520,320,5400,320C5280,320,5160,320,5040,320C4920,320,4800,320,4680,320C4560,320,4440,320,4320,320C4200,320,4080,320,3960,320C3840,320,3720,320,3600,320C3480,320,3360,320,3240,320C3120,320,3000,320,2880,320C2760,320,2640,320,2520,320C2400,320,2280,320,2160,320C2040,320,1920,320,1800,320C1680,320,1560,320,1440,320C1320,320,1200,320,1080,320C960,320,840,320,720,320C600,320,480,320,360,320C240,320,120,320,60,320L0,320Z"></path><defs><linearGradient id="sw-gradient-2" x1="0" x2="0" y1="1" y2="0"><stop stop-color="rgba(255, 255, 255, 1)" offset="0%"></stop><stop stop-color="rgba(255, 255, 255, 1)" offset="100%"></stop></linearGradient></defs><path style="transform:translate(0, 100px); opacity:0.8" fill="url(#sw-gradient-2)" d="M0,32L60,37.3C120,43,240,53,360,74.7C480,96,600,128,720,133.3C840,139,960,117,1080,96C1200,75,1320,53,1440,69.3C1560,85,1680,139,1800,176C1920,213,2040,235,2160,208C2280,181,2400,107,2520,90.7C2640,75,2760,117,2880,138.7C3000,160,3120,160,3240,144C3360,128,3480,96,3600,85.3C3720,75,3840,85,3960,117.3C4080,149,4200,203,4320,192C4440,181,4560,107,4680,112C4800,117,4920,203,5040,197.3C5160,192,5280,96,5400,85.3C5520,75,5640,149,5760,165.3C5880,181,6000,139,6120,133.3C6240,128,6360,160,6480,160C6600,160,6720,128,6840,144C6960,160,7080,224,7200,229.3C7320,235,7440,181,7560,165.3C7680,149,7800,171,7920,149.3C8040,128,8160,64,8280,69.3C8400,75,8520,149,8580,186.7L8640,224L8640,320L8580,320C8520,320,8400,320,8280,320C8160,320,8040,320,7920,320C7800,320,7680,320,7560,320C7440,320,7320,320,7200,320C7080,320,6960,320,6840,320C6720,320,6600,320,6480,320C6360,320,6240,320,6120,320C6000,320,5880,320,5760,320C5640,320,5520,320,5400,320C5280,320,5160,320,5040,320C4920,320,4800,320,4680,320C4560,320,4440,320,4320,320C4200,320,4080,320,3960,320C3840,320,3720,320,3600,320C3480,320,3360,320,3240,320C3120,320,3000,320,2880,320C2760,320,2640,320,2520,320C2400,320,2280,320,2160,320C2040,320,1920,320,1800,320C1680,320,1560,320,1440,320C1320,320,1200,320,1080,320C960,320,840,320,720,320C600,320,480,320,360,320C240,320,120,320,60,320L0,320Z"></path></svg>