<?xml version="1.0" encoding="iso-8859-1"?>
<!-- Generator: Adobe Illustrator 19.0.0, SVG Export Plug-In . SVG Version: 6.00 Build 0)  -->
<svg version="1.1" id="Layer_1" xmlns="http://www.w3.org/2000/svg" xmlns:xlink="http://www.w3.org/1999/xlink" x="0px" y="0px"
	 viewBox="0 0 512 512" style="enable-background:new 0 0 512 512;" xml:space="preserve">
<circle style="fill:#0066FF;" cx="256" cy="256" r="256"/>
<rect x="64" y="155.04" style="fill:#FFFFFF;" width="384" height="232"/>
<path style="fill:#999999;" d="M448,155.12v-24.56c0-12.96-10.56-23.52-23.52-23.52H87.52C74.56,107.04,64,117.6,64,130.48v24.56
	h384V155.12z"/>
<g>
	<circle style="fill:#FFFFFF;" cx="97.12" cy="131.04" r="6.72"/>
	<circle style="fill:#FFFFFF;" cx="117.2" cy="131.04" r="6.72"/>
	<circle style="fill:#FFFFFF;" cx="137.28" cy="131.04" r="6.72"/>
	<path style="fill:#FFFFFF;" d="M388.24,142.8H204.08c-6.48,0-11.76-5.28-11.76-11.76l0,0c0-6.48,5.28-11.76,11.76-11.76h184.16
		c6.48,0,11.76,5.28,11.76,11.76l0,0C400,137.52,394.72,142.8,388.24,142.8z"/>
</g>
<g>
	<path style="fill:#0066FF;" d="M150.24,245.12l6.72,25.76c1.44,5.68,2.8,10.88,3.76,16.16h0.32c1.12-5.12,2.8-10.56,4.48-16
		l8.24-25.84h7.76l7.84,25.36c1.92,6.08,3.36,11.44,4.48,16.56h0.32c0.8-5.12,2.16-10.48,3.84-16.48l7.2-25.44h9.12L198,295.92h-8.4
		l-7.76-24.24c-1.76-5.68-3.28-10.72-4.48-16.64h-0.24c-1.28,6.08-2.8,11.28-4.64,16.8l-8.16,24.08h-8.4l-15.28-50.72h9.6V245.12z"
		/>
	<path style="fill:#0066FF;" d="M228.64,245.12l6.72,25.76c1.44,5.68,2.8,10.88,3.76,16.16h0.32c1.12-5.12,2.8-10.56,4.48-16
		l8.24-25.84h7.76l7.84,25.36c1.92,6.08,3.36,11.44,4.48,16.56h0.32c0.8-5.12,2.16-10.48,3.84-16.48l7.2-25.44h9.12l-16.32,50.72
		H268l-7.76-24.24c-1.76-5.68-3.28-10.72-4.48-16.64h-0.24c-1.28,6.08-2.8,11.28-4.64,16.8l-8.16,24.08h-8.4l-15.28-50.72h9.6
		V245.12z"/>
	<path style="fill:#0066FF;" d="M306.96,245.12l6.72,25.76c1.44,5.68,2.8,10.88,3.76,16.16h0.32c1.12-5.12,2.8-10.56,4.48-16
		l8.24-25.84h7.76l7.84,25.36c1.92,6.08,3.36,11.44,4.48,16.56h0.32c0.8-5.12,2.16-10.48,3.84-16.48l7.2-25.44h9.12l-16.32,50.72
		h-8.4l-7.76-24.24c-1.76-5.68-3.28-10.72-4.48-16.64h-0.24c-1.28,6.08-2.8,11.28-4.64,16.8l-8.16,24.08h-8.24l-15.28-50.72h9.44
		V245.12z"/>
</g>
<g>
</g>
<g>
</g>
<g>
</g>
<g>
</g>
<g>
</g>
<g>
</g>
<g>
</g>
<g>
</g>
<g>
</g>
<g>
</g>
<g>
</g>
<g>
</g>
<g>
</g>
<g>
</g>
<g>
</g>
</svg>
