<?xml version="1.0" standalone="no"?>
<!DOCTYPE svg PUBLIC "-//W3C//DTD SVG 20010904//EN"
 "http://www.w3.org/TR/2001/REC-SVG-20010904/DTD/svg10.dtd">
<svg version="1.0" xmlns="http://www.w3.org/2000/svg"
 width="30.000000pt" height="30.000000pt" viewBox="0 0 30.000000 30.000000"
 preserveAspectRatio="xMidYMid meet">

<g transform="translate(0.000000,30.000000) scale(0.100000,-0.100000)" fill="#0066FF" stroke="none">
<path d="M205 258 c-16 -6 -47 -23 -67 -39 -20 -16 -44 -29 -52 -29 -15 0 -56
-45 -56 -62 0 -6 11 -7 24 -4 18 4 25 1 29 -15 3 -11 15 -23 26 -26 16 -4 19
-11 15 -29 -3 -13 -2 -24 4 -24 17 0 62 41 62 56 0 8 13 32 29 52 27 36 51 90
51 118 0 16 -23 17 -65 2z m1 -59 c10 -17 -13 -36 -27 -22 -12 12 -4 33 11 33
5 0 12 -5 16 -11z"/>
<path d="M56 82 c-10 -30 -2 -38 26 -24 17 8 19 11 6 11 -9 1 -18 9 -20 19 -3
14 -6 13 -12 -6z"/>
</g>
</svg>
