<?xml version="1.0" standalone="no"?>
<!DOCTYPE svg PUBLIC "-//W3C//DTD SVG 20010904//EN"
 "http://www.w3.org/TR/2001/REC-SVG-20010904/DTD/svg10.dtd">
<svg version="1.0" xmlns="http://www.w3.org/2000/svg"
 width="50.000000pt" height="50.000000pt" viewBox="0 0 50.000000 50.000000"
 preserveAspectRatio="xMidYMid meet">

<g transform="translate(0.000000,50.000000) scale(0.100000,-0.100000)"
fill="#0066FF" stroke="none">
<path d="M240 480 c0 -19 -7 -20 -120 -20 l-120 0 0 -170 0 -170 120 0 c66 0
120 -3 120 -7 0 -4 -21 -29 -47 -55 -56 -57 -50 -78 7 -23 29 28 40 34 40 22
0 -9 5 -17 10 -17 6 0 10 8 10 17 0 12 11 6 40 -22 57 -55 63 -34 7 23 -26 26
-47 51 -47 55 0 4 54 7 120 7 l120 0 0 170 0 170 -120 0 c-113 0 -120 1 -120
20 0 11 -4 20 -10 20 -5 0 -10 -9 -10 -20z m188 -138 c2 -7 -5 -15 -15 -19
-20 -7 -101 -70 -120 -93 -12 -13 -14 -13 -25 0 -21 25 -86 70 -100 70 -8 0
-28 -14 -46 -31 -17 -17 -36 -28 -42 -24 -17 10 -11 25 13 34 12 5 35 21 50
37 25 25 31 26 40 14 18 -23 84 -70 98 -70 13 0 100 67 112 88 10 15 29 12 35
-6z"/>
</g>
</svg>
