<?xml version="1.0" standalone="no"?>
<!DOCTYPE svg PUBLIC "-//W3C//DTD SVG 20010904//EN"
 "http://www.w3.org/TR/2001/REC-SVG-20010904/DTD/svg10.dtd">
<svg version="1.0" xmlns="http://www.w3.org/2000/svg"
 width="50.000000pt" height="50.000000pt" viewBox="0 0 50.000000 50.000000"
 preserveAspectRatio="xMidYMid meet">

<g transform="translate(0.000000,50.000000) scale(0.100000,-0.100000)"
fill="#0066FF" stroke="none">
<path d="M40 400 l0 -60 210 0 210 0 0 60 0 60 -210 0 -210 0 0 -60z"/>
<path d="M40 180 l0 -140 130 0 130 0 0 140 0 140 -130 0 -130 0 0 -140z"/>
<path d="M320 280 l0 -40 70 0 70 0 0 40 0 40 -70 0 -70 0 0 -40z"/>
<path d="M320 180 l0 -40 70 0 70 0 0 40 0 40 -70 0 -70 0 0 -40z"/>
<path d="M320 80 l0 -40 70 0 70 0 0 40 0 40 -70 0 -70 0 0 -40z"/>
</g>
</svg>
